# xmcd
#
# Track frame offsets:
#	150
#	21985
#	44885
#	58845
#	76215
#	98065
#	120965
#	134920
#
# Disc length: 2033 seconds
#
# Revision: 1
# Processed by: cddbd v1.5.2PL0 Copyright (c) Steve Scherf et al.
# Submitted via: audiograbber 1.83.01
#
DISCID=6f07ef08
DTITLE=RCA Karaoke - Bette Middler - 521
DYEAR=1995
DGENRE=Karaoke
TTITLE0=From A Distance
TTITLE1=The Wind Beneath My Wings
TTITLE2=Do you Wanna Dance
TTITLE3=The Rose
TTITLE4=From A Distance - Vocals
TTITLE5=The Wind Beneath My Wings - Vocals
TTITLE6=Do you Wanna Dance - Vocals
TTITLE7=The Rose - Vocals
EXTD=
EXTT0=
EXTT1=
EXTT2=
EXTT3=
EXTT4=
EXTT5=
EXTT6=
EXTT7=
PLAYORDER=
